<svg width="192" height="192" viewBox="0 0 192 192" fill="none" xmlns="http://www.w3.org/2000/svg">
<rect x="37.0909" y="1.09091" width="117.818" height="189.818" rx="44.7273" fill="white" stroke="black" stroke-width="2.18182"/>
<path d="M68.7273 139.639C69.278 134.923 69.8932 130.089 70.5057 125.132C71.4863 116.731 72.7758 106.034 73.759 96.3043C74.2479 91.5279 74.8013 86.5741 75.352 81.4351C75.9028 76.2962 76.3353 71.6441 76.7651 67.4736C77.3024 62.5172 77.7457 57.6826 78.1755 52.9696C78.1755 52.9696 78.7289 52.9088 79.8921 52.8479C82.96 52.6071 90.8152 52.3636 98.1787 52.3636C107.259 52.3636 116.831 55.2057 120.39 63.364C122.292 67.6562 123.273 73.0942 123.273 79.7442C123.274 84.2059 123.029 88.6644 122.537 93.0997C121.553 103.375 117.811 119.271 116.524 122.775C116.156 123.568 107.689 131.539 101.185 136.313C97.8107 138.61 95.4788 139.639 89.4639 139.639H68.7273ZM89.4639 126.04C91.0109 126.227 92.5692 126.307 94.1276 126.281C95.7315 126.315 97.335 126.194 98.9148 125.918C99.52 125.867 100.117 125.745 100.693 125.556C102.351 119.271 104.435 108.813 105.969 95.095C106.437 91.0215 106.682 86.9264 106.705 82.827C106.705 77.3864 105.848 73.0942 104.067 69.9531C102.286 66.8121 98.9631 65.2376 94.1276 65.2376C93.8213 67.5953 93.4533 70.3765 93.147 73.5176C92.4727 78.8365 91.4895 86.6932 90.5089 96.3043C89.4639 105.974 88.7278 113.288 88.2389 118.242C87.9299 121.152 87.6855 123.682 87.6237 125.797C88.1852 125.857 88.7896 125.979 89.4639 126.04Z" fill="black"/>
</svg>
